<svg xmlns="http://www.w3.org/2000/svg" width="23" height="21" viewBox="0 0 23 21">
  <defs>
    <style>
      .cls-1 {
        fill: #cdc8bf;
        fill-rule: evenodd;
      }
    </style>
  </defs>
  <path id="Email" class="cls-1" d="M852.829,262.7h0l-2.937-1.917v-6.407a0.378,0.378,0,0,0-.38-0.375H833.488a0.378,0.378,0,0,0-.381.375v6.407L830.17,262.7h0a0.374,0.374,0,0,0-.17.312v11.614a0.378,0.378,0,0,0,.381.375h22.238a0.378,0.378,0,0,0,.381-0.375V263.011A0.372,0.372,0,0,0,852.829,262.7Zm-19.722,1.311-1.195-.624h1.195v0.624Zm-2.345-.376,8.76,4.575-8.76,5.717V263.634Zm10.738,4.184,9.855,6.432h-19.71Zm1.978,0.391,8.76-4.575v10.292Zm6.414-4.823h1.2l-1.2.624v-0.624Zm1.463-.75h-1.463v-0.954Zm-2.224-7.886v9.658l-6.376,3.33-1.045-.682a0.387,0.387,0,0,0-.421,0l-1.045.682-6.375-3.33V254.75h15.262Zm-16.024,7.886h-1.462l1.462-.954v0.954Zm8.393,1.226h3.034a0.375,0.375,0,1,0,0-.75H841.5a2.637,2.637,0,0,1-2.655-2.612v-0.111a2.655,2.655,0,0,1,5.309,0v0.276a0.575,0.575,0,0,1-1.15,0V260.14a1.646,1.646,0,1,0-1.645,1.62,1.656,1.656,0,0,0,1.084-.4,1.342,1.342,0,0,0,1.136.624,1.327,1.327,0,0,0,1.336-1.316v-0.276a3.416,3.416,0,0,0-6.831,0v0.11A3.393,3.393,0,0,0,841.5,263.862Zm-0.141-2.852a0.87,0.87,0,1,1,.883-0.87A0.879,0.879,0,0,1,841.359,261.01Z" transform="translate(-830 -254)"/>
</svg>
