<svg xmlns="http://www.w3.org/2000/svg" width="26.47" height="26.531" viewBox="0 0 26.47 26.531">
  <defs>
    <style>
      .cls-1 {
        fill: #fff;
        fill-rule: evenodd;
      }
    </style>
  </defs>
  <path id="Google_plus_circular_button" data-name="Google plus circular button" class="cls-1" d="M1485.1,35.439a3.28,3.28,0,0,0-1.58-2.641l-0.68-.529a1.025,1.025,0,0,1-.49-0.81,1.31,1.31,0,0,1,.53-0.924,3.072,3.072,0,0,0,.24-5.223h1.17l1.2-.679h-3.87a5.113,5.113,0,0,0-3.37,1.037,3.383,3.383,0,0,0-1.2,2.526,2.978,2.978,0,0,0,3.12,2.961c0.19,0,.39-0.02.6-0.038a1.75,1.75,0,0,0-.19.735,2,2,0,0,0,.57,1.282,8.038,8.038,0,0,0-3.59.867,2.718,2.718,0,0,0-1.45,2.3c0,1.4,1.32,2.7,4.04,2.7C1483.39,39,1485.1,37.211,1485.1,35.439Zm-4.05-4.808c-1.61,0-2.35-2.093-2.35-3.356a2.184,2.184,0,0,1,.42-1.4,1.739,1.739,0,0,1,1.31-.623c1.56,0,2.37,2.113,2.37,3.469A1.721,1.721,0,0,1,1481.05,30.631Zm0.02,7.579c-2.01,0-3.31-.961-3.31-2.3a2.124,2.124,0,0,1,1.62-1.941,7.535,7.535,0,0,1,1.98-.3,2.975,2.975,0,0,1,.43.019c1.43,1.018,2.05,1.527,2.05,2.489C1483.84,37.343,1482.88,38.21,1481.07,38.21Zm4.2-6.433h2.03v2.04h1.02v-2.04h2.04v-1.02h-2.04v-2.04h-1.02v2.04h-2.03v1.02Zm11.19-.51a13.23,13.23,0,1,0-13.23,13.265A13.245,13.245,0,0,0,1496.46,31.267Zm-25.26,0a12.03,12.03,0,1,1,12.03,12.059A12.047,12.047,0,0,1,1471.2,31.267Z" transform="translate(-1470 -18)"/>
</svg>
