<svg xmlns="http://www.w3.org/2000/svg" width="26.47" height="26.531" viewBox="0 0 26.47 26.531">
  <defs>
    <style>
      .cls-1 {
        fill: #fff;
        fill-rule: evenodd;
      }
    </style>
  </defs>
  <path id="Twitter_circular_button" data-name="Twitter circular button" class="cls-1" d="M1527.44,28.629c0-.134,0-0.267-0.01-0.4a6.01,6.01,0,0,0,1.46-1.573,5.572,5.572,0,0,1-1.68.461,2.992,2.992,0,0,0,1.29-1.684,5.622,5.622,0,0,1-1.86.718,2.893,2.893,0,0,0-2.13-1.009,2.951,2.951,0,0,0-2.92,3.054,3.3,3.3,0,0,0,.07.708,8.213,8.213,0,0,1-6.02-3.338,3.163,3.163,0,0,0-.4,1.568,3.243,3.243,0,0,0,1.3,2.619,2.764,2.764,0,0,1-1.32-.406v0.04a3.1,3.1,0,0,0,2.34,3.085,2.716,2.716,0,0,1-1.32.044,2.97,2.97,0,0,0,2.73,2.182,5.628,5.628,0,0,1-3.63,1.325,5.692,5.692,0,0,1-.7-0.045,7.892,7.892,0,0,0,4.49,1.408C1524.5,37.39,1527.44,32.7,1527.44,28.629Zm7.56,2.638a13.23,13.23,0,1,0-13.23,13.265A13.252,13.252,0,0,0,1535,31.267Zm-25.26,0a12.025,12.025,0,1,1,12.03,12.059A12.041,12.041,0,0,1,1509.74,31.267Z" transform="translate(-1508.53 -18)"/>
</svg>
