<svg xmlns="http://www.w3.org/2000/svg" width="18" height="27" viewBox="0 0 18 27">
  <defs>
    <style>
      .cls-1 {
        fill: #cdc8bf;
        fill-rule: evenodd;
      }
    </style>
  </defs>
  <path id="Location_pin" data-name="Location pin" class="cls-1" d="M841,135a8.975,8.975,0,0,0-9,8.93c0,1.984,1.276,5.218,3.9,9.886,1.857,3.3,3.683,6.056,3.76,6.171L841,162l1.338-2.013c0.076-.115,1.9-2.869,3.76-6.171,2.626-4.668,3.9-7.9,3.9-9.886A8.976,8.976,0,0,0,841,135Zm0,13.5a4.63,4.63,0,1,1,4.665-4.63A4.647,4.647,0,0,1,841,148.5Z" transform="translate(-832 -135)"/>
</svg>
