<svg xmlns="http://www.w3.org/2000/svg" width="21" height="20" viewBox="0 0 21 20">
  <defs>
    <style>
      .cls-1 {
        fill: #cdc8bf;
        fill-rule: evenodd;
      }
    </style>
  </defs>
  <path id="Vibrating_Phone" data-name="Vibrating Phone" class="cls-1" d="M852.4,200.015l-3.035-2.9a2.214,2.214,0,0,0-1.537-.6,2.319,2.319,0,0,0-1.613.644l-1.182,1.13a14.391,14.391,0,0,1-3.4-2.372,13.818,13.818,0,0,1-2.48-3.258l1.182-1.13a2.07,2.07,0,0,0,.041-3.014l-3.035-2.9a2.2,2.2,0,0,0-1.537-.6,2.325,2.325,0,0,0-1.586.616,6.181,6.181,0,0,0-2.056,3.583c-0.682,3.189.886,6.256,5.413,10.589,5.057,4.836,9.374,5.212,10.576,5.212a3.922,3.922,0,0,0,.442-0.02,5.056,5.056,0,0,0,3.82-2A2.13,2.13,0,0,0,852.4,200.015Zm-1.007,2.185a3.742,3.742,0,0,1-2.956,1.542s-0.1.011-.291,0.011c-1.075,0-4.952-.35-9.655-4.847-4.174-4-5.64-6.735-5.057-9.457a4.868,4.868,0,0,1,1.6-2.863l0.039-.028,0.034-.032a1,1,0,0,1,.694-0.28,0.882,0.882,0,0,1,.615.239l3.035,2.9a0.861,0.861,0,0,1-.041,1.252l-1.337,1.278-0.022.022a0.985,0.985,0,0,0-.116,1.187,15.182,15.182,0,0,0,2.773,3.664,15.836,15.836,0,0,0,3.82,2.646,1.214,1.214,0,0,0,.564.144,1.066,1.066,0,0,0,.791-0.348l1.255-1.2a1,1,0,0,1,.692-0.278,0.884,0.884,0,0,1,.616.238l3.034,2.9A0.949,0.949,0,0,1,851.388,202.2Zm-6.666-14.146a6.215,6.215,0,0,1,3.358,1.653,5.761,5.761,0,0,1,1.732,3.245,0.641,0.641,0,0,0,.647.556l0.071,0a0.632,0.632,0,0,0,.578-0.687A6.967,6.967,0,0,0,849,188.825a7.512,7.512,0,0,0-4.131-2.009,0.646,0.646,0,0,0-.722.548A0.63,0.63,0,0,0,844.722,188.054Zm-0.609,2.611a3.92,3.92,0,0,1,1.993,1.022,3.642,3.642,0,0,1,1.07,1.924,0.641,0.641,0,0,0,.647.557c0.023,0,.047,0,0.071,0a0.631,0.631,0,0,0,.577-0.687,4.876,4.876,0,0,0-1.444-2.672,5.255,5.255,0,0,0-2.765-1.378,0.645,0.645,0,0,0-.722.548A0.631,0.631,0,0,0,844.113,190.665Z" transform="translate(-832 -185)"/>
</svg>
